<?xml version="1.0" encoding="utf-8"?>
<!-- Generator: Adobe Illustrator 25.2.1, SVG Export Plug-In . SVG Version: 6.00 Build 0)  -->
<svg version="1.1" id="Layer_1" xmlns="http://www.w3.org/2000/svg" xmlns:xlink="http://www.w3.org/1999/xlink" x="0px" y="0px"
	 viewBox="0 0 1101.31 936.46" style="enable-background:new 0 0 1101.31 936.46;" xml:space="preserve">
<style type="text/css">
	.st0{fill:#82774A;}
</style>
<g>
	<g>
		<g>
			<path d="M430.93,877.06h6.93l-10.11,58.79h-8.1l-7.4-48.55l-7.52,48.55h-8.1l-10.11-58.79h6.93l7.51,49.22l7.71-49.22h7.04
				l7.69,49.06L430.93,877.06z"/>
			<path d="M469.27,882.7h-18.24v19.22h16.06v5.48h-16.06v22.82h18.23v5.63h-25.04v-58.79h25.06V882.7z"/>
			<path d="M503.41,923.99c0,7.24-5.73,12.47-14.5,12.47c-10.09,0-14.78-5.82-14.78-12.82v-6.52h6.28v6.45
				c0,4.53,3.26,7.44,8.43,7.44c4.58,0,7.76-2.66,7.76-6.98v-5.14c0-12.3-22.07-9.8-22.07-26.09v-4.28
				c0-7.06,5.92-12.04,14.23-12.04c9.16,0,14.37,5.21,14.36,12.2v5.26h-6.28v-5.16c0-4.17-3.46-6.83-7.88-6.83
				c-4.75,0-7.68,2.89-7.68,6.63v4.28c0,11.58,22.13,9.38,22.13,26.01V923.99z"/>
			<path d="M536.4,877.07v5.74h-11.43v53.05h-6.81V882.8H506.5v-5.74H536.4z"/>
			<path d="M575.16,877.06h10.01v58.79h-6.51l0.06-51.5l-11.32,51.5h-7.15l-11.27-51.59l0.06,51.59h-6.51l0.01-58.79h10.01
				l11.3,52.11L575.16,877.06z"/>
			<path d="M617.27,935.85l-2.14-10.78h-15.6l-2.14,10.78h-7.04l12.75-58.79h8.47l12.74,58.79H617.27z M600.61,919.6h13.43
				l-6.71-33.82L600.61,919.6z"/>
			<path d="M636.67,930.08h16.83v5.77h-23.64v-58.79h6.81V930.08z"/>
			<path d="M666.38,930.08h16.83v5.77h-23.64v-58.79h6.81V930.08z"/>
			<path d="M714.34,882.7H696.1v19.22h16.06v5.48H696.1v22.82h18.23v5.63h-25.04v-58.79h25.06L714.34,882.7z"/>
		</g>
		<g>
			<path d="M83.53,781.83c0.06,36.52-19.91,51.47-51.97,51.47H0V664.58h31.61c31.99,0,51.91,13.86,51.91,49.64L83.53,781.83z
				 M64.95,714.22c0-25.31-12.15-33.33-33.33-33.33H18.35v136.1h13.22c21.24,0,33.39-9.12,33.39-35.16V714.22z"/>
			<path d="M173.66,680.75h-49.14v55.17h43.27v15.73h-43.27v65.48h49.11v16.17h-67.46V664.58h67.5L173.66,680.75z"/>
			<path d="M314.24,833.3h-18.77l-19.95-69.6c-2.68,0.3-5.49,0.46-8.43,0.46h-14.47v69.15h-18.34V664.58h32.81
				c28.34,0,44.69,13.76,44.69,38.79v20.84c0,16.4-6.68,28.15-18.91,34.5L314.24,833.3z M266.57,748.52
				c15.42,0,26.62-6.56,26.62-24.1v-20.84c0-16.6-11.38-22.88-26.62-22.88h-13.96v67.82L266.57,748.52z"/>
			<path d="M330.46,786.03v-75.06c0-30.41,16.7-48.07,43.94-48.1c27.26,0.1,43.96,17.75,43.96,48.1v75.06
				c0,31.03-16.75,49.01-44.05,49.01C347.12,835.04,330.46,817.06,330.46,786.03z M399.78,786.35v-75.69
				c0-20.28-9.72-31.41-25.38-31.51c-15.64,0.04-25.36,11.17-25.36,31.51v75.69c0,20.93,9.68,32.35,25.27,32.35
				C390.02,818.7,399.78,807.28,399.78,786.35z"/>
			<path d="M506.98,664.58h17.7V833.3h-21.78l-44.46-136.44l0.45,136.44h-17.63V664.58h21.6l44.64,136.98L506.98,664.58z"/>
			<path d="M634.23,781.83c0.06,36.52-19.91,51.47-51.97,51.47H550.7V664.58h31.61c31.99,0,51.91,13.86,51.91,49.64L634.23,781.83z
				 M615.65,714.22c0-25.31-12.15-33.33-33.33-33.33h-13.27v136.1h13.22c21.24,0,33.39-9.12,33.39-35.16L615.65,714.22z"/>
			<path d="M713.74,745.81c14.29,4.27,22.28,14.01,22.28,30.72v19.08c0,24.04-13.97,37.69-42.97,37.69h-36.19V664.58h33.54
				c28.24,0,42.9,13.14,42.9,36.14v14.79c0,16.04-7.45,25.61-19.56,30.29L713.74,745.81z M675.21,680.43v58.38l15.77-0.03
				c15.62-0.02,23.84-7.95,23.84-22v-14.85c0-13.92-8.27-21.49-23.89-21.49L675.21,680.43z M717.5,776.15
				c0-14.28-7.79-22.33-24.74-22.29l-17.55,0.03v63.54h17.55c16.95,0,24.74-7.82,24.74-22.38V776.15z"/>
			<path d="M754.45,786.03v-75.06c0-30.41,16.7-48.07,43.94-48.1c27.25,0.1,43.96,17.75,43.96,48.1v75.06
				c0,31.03-16.75,49.01-44.05,49.01C771.12,835.04,754.45,817.06,754.45,786.03z M823.77,786.35v-75.69
				c0-20.28-9.72-31.41-25.38-31.51c-15.64,0.04-25.36,11.17-25.36,31.51v75.69c0,20.93,9.68,32.35,25.27,32.35
				C814.02,818.7,823.77,807.28,823.77,786.35z"/>
			<path d="M928.84,664.53h18.34v127.93c0,27.21-16.17,42.48-41.51,42.58c-25.49,0-41.63-15.22-41.63-42.58V664.53h18.34
				l0.01,128.14c0,15.77,7.85,25.91,23.33,25.91c15.5-0.1,23.11-9.77,23.11-25.9L928.84,664.53z"/>
			<path d="M1082.65,664.58h18.66l-27.24,168.72h-21.81l-19.94-139.35l-20.25,139.35h-21.81l-27.23-168.72h18.66l20.23,141.26
				l20.77-141.26h18.96l20.72,140.79L1082.65,664.58z"/>
		</g>
	</g>
	<path d="M807.22,152.9l-52.69-72.52L682.02,27.7L596.77,0h-89.63l-85.25,27.7l-72.52,52.69l-52.69,72.52l-27.7,85.25v89.63
		l27.7,85.25l52.69,72.52l72.52,52.69l85.25,27.7h89.63l85.25-27.7l72.52-52.69l52.69-72.52l27.7-85.25v-89.63L807.22,152.9z
		 M612.68,282.96l203.24-32.19v64.38L612.68,282.96z M812.95,232.01L609.71,264.2l183.34-93.42L812.95,232.01z M784.43,153.85
		l-183.34,93.42l145.5-145.5L784.43,153.85z M602.91,21.97l61.23,19.89l-93.42,183.34L602.91,21.97z M551.96,222.24L519.77,19h64.38
		L551.96,222.24z M533.19,225.21L439.77,41.87L501,21.97L533.19,225.21z M516.26,233.83l-145.5-145.5l52.08-37.84L516.26,233.83z
		 M422.84,515.44l-52.08-37.84l145.5-145.5L422.84,515.44z M533.19,340.72L501,543.96l-61.23-19.89L533.19,340.72z M551.96,343.69
		l32.19,203.24h-64.38L551.96,343.69z M570.72,340.72l93.42,183.34l-61.23,19.89L570.72,340.72z M587.65,332.09l145.5,145.5
		l-52.08,37.84L587.65,332.09z M587.65,233.83l93.42-183.34l52.08,37.84L587.65,233.83z M357.32,101.77l145.5,145.5l-183.34-93.42
		L357.32,101.77z M310.86,170.78L494.2,264.2l-203.24-32.19L310.86,170.78z M491.23,282.96l-203.24,32.19v-64.38L491.23,282.96z
		 M290.96,333.92l203.24-32.19l-183.34,93.42L290.96,333.92z M319.48,412.08l183.34-93.42l-145.5,145.5L319.48,412.08z
		 M746.59,464.16l-145.5-145.5l183.34,93.42L746.59,464.16z M793.05,395.15l-183.34-93.42l203.24,32.19L793.05,395.15z"/>
	<polygon class="st0" points="556.15,256.5 547.76,256.5 539.79,259.09 533.01,264.02 528.08,270.8 525.49,278.77 525.49,287.16 
		528.08,295.13 533.01,301.91 539.79,306.84 547.76,309.43 556.15,309.43 564.12,306.84 570.9,301.91 575.83,295.13 578.42,287.16 
		578.42,278.77 575.83,270.8 570.9,264.02 564.12,259.09 	"/>
</g>
</svg>
